<?xml version="1.0" encoding="utf-8"?>
<!-- Generator: Adobe Illustrator 24.1.1, SVG Export Plug-In . SVG Version: 6.00 Build 0)  -->
<svg version="1.1" id="Layer_1" xmlns="http://www.w3.org/2000/svg" xmlns:xlink="http://www.w3.org/1999/xlink" x="0px" y="0px"
	 viewBox="0 0 512 512" style="enable-background:new 0 0 512 512;" xml:space="preserve">
<g>
	<path d="M343.5,59.2L328,43.7L196.8,174.9l15.5,15.5l5.3-21.2c-1.3-0.3-16.9-4.1-40.3-4.2c-17.6,0-39.6,2.2-63,10
		c-23.4,7.8-48.3,21.4-70.5,43.7l-15.5,15.5l249.6,249.6l15.5-15.5c22.3-22.3,35.9-47.1,43.7-70.5c7.8-23.4,10-45.4,10-63
		c0-23.4-3.9-39-4.2-40.3l-21.2,5.3l15.5,15.5l146.7-146.7L343.5,28.3L328,43.7L343.5,59.2L328,74.7l93.9,93.9L297.4,293l3,12
		l6.8-1.7l-6.9,1.6l0,0.1l6.8-1.7l-6.9,1.6c0.1,0.4,2.9,12.4,2.9,29.8c0,13.9-1.8,31.3-7.7,49.2c-6,17.9-16,36.3-33.1,53.4
		l15.5,15.5l15.5-15.5L74.7,218.7l-15.5,15.5l15.5,15.5c17.1-17.1,35.5-27.1,53.4-33.1c17.9-6,35.2-7.7,49.2-7.7
		c9.3,0,17,0.8,22.3,1.5c2.6,0.4,4.6,0.7,5.9,1l1.3,0.3l0.2,0.1l1.6-6.8l-1.7,6.8l0.1,0l1.6-6.8l-1.7,6.8l12,3l140-140L343.5,59.2
		L328,74.7L343.5,59.2z M30.9,512L184,358.9L153.1,328L0,481.1L30.9,512z M284.3,30.9l196.8,196.8l30.9-30.9L315.2,0L284.3,30.9z"/>
</g>
</svg>
